<svg id="visual" viewBox="0 0 900 600" width="900" height="600" xmlns="http://www.w3.org/2000/svg" xmlns:xlink="http://www.w3.org/1999/xlink" version="1.1"><rect x="0" y="0" width="900" height="600" fill="#e0e0e0"></rect><defs><linearGradient id="grad1_0" x1="33.3%" y1="0%" x2="100%" y2="100%"><stop offset="20%" stop-color="#c8a2c8" stop-opacity="1"></stop><stop offset="80%" stop-color="#c8a2c8" stop-opacity="1"></stop></linearGradient></defs><defs><linearGradient id="grad1_1" x1="33.3%" y1="0%" x2="100%" y2="100%"><stop offset="20%" stop-color="#c8a2c8" stop-opacity="1"></stop><stop offset="80%" stop-color="#ccabcb" stop-opacity="1"></stop></linearGradient></defs><defs><linearGradient id="grad1_2" x1="33.3%" y1="0%" x2="100%" y2="100%"><stop offset="20%" stop-color="#cfb4cf" stop-opacity="1"></stop><stop offset="80%" stop-color="#ccabcb" stop-opacity="1"></stop></linearGradient></defs><defs><linearGradient id="grad1_3" x1="33.3%" y1="0%" x2="100%" y2="100%"><stop offset="20%" stop-color="#cfb4cf" stop-opacity="1"></stop><stop offset="80%" stop-color="#d3bcd2" stop-opacity="1"></stop></linearGradient></defs><defs><linearGradient id="grad1_4" x1="33.3%" y1="0%" x2="100%" y2="100%"><stop offset="20%" stop-color="#d6c5d6" stop-opacity="1"></stop><stop offset="80%" stop-color="#d3bcd2" stop-opacity="1"></stop></linearGradient></defs><defs><linearGradient id="grad1_5" x1="33.3%" y1="0%" x2="100%" y2="100%"><stop offset="20%" stop-color="#d6c5d6" stop-opacity="1"></stop><stop offset="80%" stop-color="#d9ced9" stop-opacity="1"></stop></linearGradient></defs><defs><linearGradient id="grad1_6" x1="33.3%" y1="0%" x2="100%" y2="100%"><stop offset="20%" stop-color="#ddd7dd" stop-opacity="1"></stop><stop offset="80%" stop-color="#d9ced9" stop-opacity="1"></stop></linearGradient></defs><defs><linearGradient id="grad1_7" x1="33.3%" y1="0%" x2="100%" y2="100%"><stop offset="20%" stop-color="#ddd7dd" stop-opacity="1"></stop><stop offset="80%" stop-color="#e0e0e0" stop-opacity="1"></stop></linearGradient></defs><defs><linearGradient id="grad2_0" x1="0%" y1="0%" x2="66.7%" y2="100%"><stop offset="20%" stop-color="#c8a2c8" stop-opacity="1"></stop><stop offset="80%" stop-color="#c8a2c8" stop-opacity="1"></stop></linearGradient></defs><defs><linearGradient id="grad2_1" x1="0%" y1="0%" x2="66.7%" y2="100%"><stop offset="20%" stop-color="#ccabcb" stop-opacity="1"></stop><stop offset="80%" stop-color="#c8a2c8" stop-opacity="1"></stop></linearGradient></defs><defs><linearGradient id="grad2_2" x1="0%" y1="0%" x2="66.7%" y2="100%"><stop offset="20%" stop-color="#ccabcb" stop-opacity="1"></stop><stop offset="80%" stop-color="#cfb4cf" stop-opacity="1"></stop></linearGradient></defs><defs><linearGradient id="grad2_3" x1="0%" y1="0%" x2="66.7%" y2="100%"><stop offset="20%" stop-color="#d3bcd2" stop-opacity="1"></stop><stop offset="80%" stop-color="#cfb4cf" stop-opacity="1"></stop></linearGradient></defs><defs><linearGradient id="grad2_4" x1="0%" y1="0%" x2="66.7%" y2="100%"><stop offset="20%" stop-color="#d3bcd2" stop-opacity="1"></stop><stop offset="80%" stop-color="#d6c5d6" stop-opacity="1"></stop></linearGradient></defs><defs><linearGradient id="grad2_5" x1="0%" y1="0%" x2="66.7%" y2="100%"><stop offset="20%" stop-color="#d9ced9" stop-opacity="1"></stop><stop offset="80%" stop-color="#d6c5d6" stop-opacity="1"></stop></linearGradient></defs><defs><linearGradient id="grad2_6" x1="0%" y1="0%" x2="66.7%" y2="100%"><stop offset="20%" stop-color="#d9ced9" stop-opacity="1"></stop><stop offset="80%" stop-color="#ddd7dd" stop-opacity="1"></stop></linearGradient></defs><defs><linearGradient id="grad2_7" x1="0%" y1="0%" x2="66.7%" y2="100%"><stop offset="20%" stop-color="#e0e0e0" stop-opacity="1"></stop><stop offset="80%" stop-color="#ddd7dd" stop-opacity="1"></stop></linearGradient></defs><g transform="translate(900, 0)"><path d="M0 378.6C-52.4 345.5 -104.9 312.3 -164.5 284.9C-224.1 257.5 -291 235.8 -327.9 189.3C-364.7 142.8 -371.7 71.4 -378.6 0L0 0Z" fill="#dedcde"></path><path d="M0 331.3C-45.9 302.3 -91.8 273.3 -143.9 249.3C-196.1 225.3 -254.6 206.3 -286.9 165.6C-319.2 124.9 -325.2 62.5 -331.3 0L0 0Z" fill="#dbd3db"></path><path d="M0 283.9C-39.3 259.1 -78.6 234.2 -123.4 213.7C-168.1 193.1 -218.2 176.9 -245.9 142C-273.6 107.1 -278.7 53.5 -283.9 0L0 0Z" fill="#d8cad7"></path><path d="M0 236.6C-32.8 215.9 -65.5 195.2 -102.8 178.1C-140.1 160.9 -181.9 147.4 -204.9 118.3C-228 89.2 -232.3 44.6 -236.6 0L0 0Z" fill="#d4c1d4"></path><path d="M0 189.3C-26.2 172.7 -52.4 156.2 -82.2 142.5C-112.1 128.8 -145.5 117.9 -163.9 94.6C-182.4 71.4 -185.8 35.7 -189.3 0L0 0Z" fill="#d1b8d1"></path><path d="M0 142C-19.7 129.5 -39.3 117.1 -61.7 106.8C-84.1 96.6 -109.1 88.4 -122.9 71C-136.8 53.5 -139.4 26.8 -142 0L0 0Z" fill="#cdafcd"></path><path d="M0 94.6C-13.1 86.4 -26.2 78.1 -41.1 71.2C-56 64.4 -72.7 59 -82 47.3C-91.2 35.7 -92.9 17.8 -94.6 0L0 0Z" fill="#caa6ca"></path><path d="M0 47.3C-6.6 43.2 -13.1 39 -20.6 35.6C-28 32.2 -36.4 29.5 -41 23.7C-45.6 17.8 -46.5 8.9 -47.3 0L0 0Z" fill="#c8a2c8"></path></g><g transform="translate(0, 600)"><path d="M0 -378.6C31.6 -309.4 63.3 -240.3 125.5 -217.4C187.7 -194.5 280.6 -217.8 327.9 -189.3C375.1 -160.8 376.9 -80.4 378.6 0L0 0Z" fill="#dedcde"></path><path d="M0 -331.3C27.7 -270.8 55.4 -210.2 109.8 -190.2C164.3 -170.2 245.5 -190.6 286.9 -165.6C328.3 -140.7 329.8 -70.3 331.3 0L0 0Z" fill="#dbd3db"></path><path d="M0 -283.9C23.7 -232.1 47.4 -180.2 94.1 -163C140.8 -145.9 210.4 -163.4 245.9 -142C281.4 -120.6 282.6 -60.3 283.9 0L0 0Z" fill="#d8cad7"></path><path d="M0 -236.6C19.8 -193.4 39.5 -150.2 78.4 -135.9C117.3 -121.5 175.4 -136.1 204.9 -118.3C234.5 -100.5 235.5 -50.2 236.6 0L0 0Z" fill="#d4c1d4"></path><path d="M0 -189.3C15.8 -154.7 31.6 -120.1 62.7 -108.7C93.9 -97.2 140.3 -108.9 163.9 -94.6C187.6 -80.4 188.4 -40.2 189.3 0L0 0Z" fill="#d1b8d1"></path><path d="M0 -142C11.9 -116 23.7 -90.1 47.1 -81.5C70.4 -72.9 105.2 -81.7 122.9 -71C140.7 -60.3 141.3 -30.1 142 0L0 0Z" fill="#cdafcd"></path><path d="M0 -94.6C7.9 -77.4 15.8 -60.1 31.4 -54.3C46.9 -48.6 70.1 -54.5 82 -47.3C93.8 -40.2 94.2 -20.1 94.6 0L0 0Z" fill="#caa6ca"></path><path d="M0 -47.3C4 -38.7 7.9 -30 15.7 -27.2C23.5 -24.3 35.1 -27.2 41 -23.7C46.9 -20.1 47.1 -10 47.3 0L0 0Z" fill="#c8a2c8"></path></g></svg>